<svg xmlns="http://www.w3.org/2000/svg" xmlns:xlink="http://www.w3.org/1999/xlink" version="1.1" width="256" height="256" viewBox="0 0 256 256" xml:space="preserve">
<g style="stroke: none; stroke-width: 0; stroke-dasharray: none; stroke-linecap: butt; stroke-linejoin: miter; stroke-miterlimit: 10; fill: none; fill-rule: nonzero; opacity: 1;" transform="translate(1.4065934065934016 1.4065934065934016) scale(2.81 2.81)">
	<circle cx="74.038" cy="28.388" r="6.968" style="stroke: none; stroke-width: 1; stroke-dasharray: none; stroke-linecap: butt; stroke-linejoin: miter; stroke-miterlimit: 10; fill: rgb(255,197,2); fill-rule: nonzero; opacity: 1;" transform="  matrix(1 0 0 1 0 0) "/>
	<circle cx="46.101" cy="12.711" r="8.781" style="stroke: none; stroke-width: 1; stroke-dasharray: none; stroke-linecap: butt; stroke-linejoin: miter; stroke-miterlimit: 10; fill: rgb(56,141,15); fill-rule: nonzero; opacity: 1;" transform="  matrix(1 0 0 1 0 0) "/>
	<path d="M 74.041 36.357 c -4.393 0 -7.968 -3.574 -7.968 -7.968 c 0 -4.394 3.575 -7.968 7.968 -7.968 s 7.968 3.574 7.968 7.968 C 82.009 32.782 78.434 36.357 74.041 36.357 z M 74.041 22.42 c -3.291 0 -5.968 2.678 -5.968 5.968 s 2.678 5.968 5.968 5.968 s 5.968 -2.677 5.968 -5.968 S 77.332 22.42 74.041 22.42 z" style="stroke: none; stroke-width: 1; stroke-dasharray: none; stroke-linecap: butt; stroke-linejoin: miter; stroke-miterlimit: 10; fill: rgb(0,0,0); fill-rule: nonzero; opacity: 1;" transform=" matrix(1 0 0 1 0 0) " stroke-linecap="round"/>
	<path d="M 46.099 22.493 c -5.393 0 -9.781 -4.387 -9.781 -9.781 s 4.387 -9.781 9.781 -9.781 s 9.781 4.387 9.781 9.781 S 51.492 22.493 46.099 22.493 z M 46.099 4.931 c -4.29 0 -7.781 3.491 -7.781 7.781 s 3.491 7.781 7.781 7.781 c 4.291 0 7.781 -3.491 7.781 -7.781 S 50.389 4.931 46.099 4.931 z" style="stroke: none; stroke-width: 1; stroke-dasharray: none; stroke-linecap: butt; stroke-linejoin: miter; stroke-miterlimit: 10; fill: rgb(0,0,0); fill-rule: nonzero; opacity: 1;" transform=" matrix(1 0 0 1 0 0) " stroke-linecap="round"/>
	<path d="M 74.295 35.191 c 2.131 -3.826 0.756 -8.655 -3.07 -10.786 c -0.227 -0.127 -0.458 -0.24 -0.692 -0.342 c 0.185 -2.954 -1.298 -5.893 -4.057 -7.429 c -3.616 -2.014 -8.127 -0.895 -10.41 2.463 c -3.425 -0.913 -7.162 0.568 -8.965 3.806 c -2.131 3.826 -0.756 8.655 3.07 10.786 c 0.728 0.405 1.492 0.683 2.267 0.842 c 0.021 2.762 1.485 5.435 4.07 6.875 c 3.509 1.954 7.861 0.958 10.201 -2.172 C 69.716 39.483 72.732 37.998 74.295 35.191 z" style="stroke: none; stroke-width: 1; stroke-dasharray: none; stroke-linecap: butt; stroke-linejoin: miter; stroke-miterlimit: 10; fill: rgb(56,141,15); fill-rule: nonzero; opacity: 1;" transform=" matrix(1 0 0 1 0 0) " stroke-linecap="round"/>
	<path d="M 60.348 43.402 c -1.475 0 -2.965 -0.364 -4.325 -1.122 c -2.574 -1.434 -4.266 -4.052 -4.545 -6.96 c -0.623 -0.186 -1.224 -0.439 -1.794 -0.757 c -4.301 -2.395 -5.852 -7.844 -3.457 -12.145 c 1.879 -3.374 5.678 -5.133 9.422 -4.439 c 2.705 -3.402 7.447 -4.372 11.314 -2.218 c 2.789 1.553 4.537 4.516 4.585 7.682 c 0.055 0.029 0.11 0.06 0.166 0.09 c 4.3 2.395 5.85 7.843 3.455 12.144 v 0 c -1.612 2.894 -4.715 4.656 -7.998 4.582 C 65.44 42.301 62.914 43.402 60.348 43.402 z M 54.023 19.83 c -2.466 0 -4.801 1.323 -6.047 3.562 c -1.859 3.338 -0.655 7.566 2.682 9.425 c 0.62 0.346 1.287 0.594 1.981 0.736 c 0.462 0.095 0.795 0.5 0.799 0.972 c 0.02 2.495 1.383 4.798 3.557 6.009 c 3.017 1.68 6.848 0.865 8.913 -1.897 c 0.206 -0.276 0.537 -0.428 0.883 -0.398 c 2.721 0.228 5.31 -1.164 6.629 -3.533 l 0 0 c 1.859 -3.338 0.655 -7.566 -2.682 -9.426 c -0.2 -0.112 -0.402 -0.21 -0.605 -0.3 c -0.385 -0.168 -0.624 -0.559 -0.598 -0.978 c 0.166 -2.652 -1.226 -5.201 -3.545 -6.493 c -3.159 -1.758 -7.069 -0.832 -9.097 2.152 c -0.239 0.352 -0.676 0.514 -1.085 0.404 C 55.215 19.906 54.616 19.83 54.023 19.83 z M 74.295 35.192 h 0.01 H 74.295 z" style="stroke: none; stroke-width: 1; stroke-dasharray: none; stroke-linecap: butt; stroke-linejoin: miter; stroke-miterlimit: 10; fill: rgb(0,0,0); fill-rule: nonzero; opacity: 1;" transform=" matrix(1 0 0 1 0 0) " stroke-linecap="round"/>
	<circle cx="53.938" cy="21.958" r="6.968" style="stroke: none; stroke-width: 1; stroke-dasharray: none; stroke-linecap: butt; stroke-linejoin: miter; stroke-miterlimit: 10; fill: rgb(255,197,2); fill-rule: nonzero; opacity: 1;" transform="  matrix(1 0 0 1 0 0) "/>
	<path d="M 53.942 29.93 c -4.393 0 -7.967 -3.574 -7.967 -7.968 c 0 -4.394 3.574 -7.968 7.967 -7.968 s 7.968 3.574 7.968 7.968 C 61.91 26.355 58.335 29.93 53.942 29.93 z M 53.942 15.994 c -3.291 0 -5.967 2.678 -5.967 5.968 s 2.677 5.968 5.967 5.968 c 3.291 0 5.968 -2.677 5.968 -5.968 S 57.233 15.994 53.942 15.994 z" style="stroke: none; stroke-width: 1; stroke-dasharray: none; stroke-linecap: butt; stroke-linejoin: miter; stroke-miterlimit: 10; fill: rgb(0,0,0); fill-rule: nonzero; opacity: 1;" transform=" matrix(1 0 0 1 0 0) " stroke-linecap="round"/>
	<circle cx="17.251" cy="22.411" r="6.771" style="stroke: none; stroke-width: 1; stroke-dasharray: none; stroke-linecap: butt; stroke-linejoin: miter; stroke-miterlimit: 10; fill: rgb(255,197,2); fill-rule: nonzero; opacity: 1;" transform="  matrix(1 0 0 1 0 0) "/>
	<path d="M 35.072 17.888 c -3.295 2.545 -4.425 6.602 -2.525 9.062 c 1.9 2.46 6.111 2.392 9.406 -0.153 c 3.295 -2.545 9.298 -10.365 7.397 -12.825 S 38.367 15.344 35.072 17.888 z" style="stroke: none; stroke-width: 1; stroke-dasharray: none; stroke-linecap: butt; stroke-linejoin: miter; stroke-miterlimit: 10; fill: rgb(137,201,71); fill-rule: nonzero; opacity: 1;" transform=" matrix(1 0 0 1 0 0) " stroke-linecap="round"/>
	<path d="M 36.611 29.752 c -2.042 0 -3.762 -0.775 -4.856 -2.19 c -1.117 -1.446 -1.421 -3.356 -0.857 -5.379 c 0.535 -1.918 1.8 -3.724 3.563 -5.086 c 1.808 -1.396 5.081 -3.038 7.959 -3.992 c 3.975 -1.318 6.573 -1.23 7.722 0.257 c 1.149 1.488 0.576 4.024 -1.704 7.536 c -1.65 2.543 -4.066 5.295 -5.874 6.691 c -1.763 1.362 -3.83 2.129 -5.821 2.161 C 36.699 29.751 36.655 29.752 36.611 29.752 z M 47.124 14.179 c -0.938 0 -2.303 0.236 -4.074 0.824 c -2.688 0.891 -5.717 2.403 -7.366 3.677 l 0 0 c -1.424 1.1 -2.439 2.534 -2.859 4.039 c -0.39 1.4 -0.208 2.686 0.514 3.62 c 0.722 0.935 1.927 1.438 3.372 1.412 c 1.562 -0.025 3.207 -0.645 4.631 -1.745 c 1.649 -1.273 3.878 -3.822 5.42 -6.197 c 1.84 -2.835 2.228 -4.667 1.798 -5.225 C 48.366 14.334 47.885 14.179 47.124 14.179 z M 35.072 17.888 h 0.01 H 35.072 z" style="stroke: none; stroke-width: 1; stroke-dasharray: none; stroke-linecap: butt; stroke-linejoin: miter; stroke-miterlimit: 10; fill: rgb(0,0,0); fill-rule: nonzero; opacity: 1;" transform=" matrix(1 0 0 1 0 0) " stroke-linecap="round"/>
	<path d="M 36.764 18.477 c 1.003 4.04 -0.63 7.923 -3.648 8.672 c -3.017 0.749 -6.276 -1.92 -7.278 -5.96 c -1.003 -4.04 -0.852 -13.898 2.165 -14.647 S 35.761 14.437 36.764 18.477 z" style="stroke: none; stroke-width: 1; stroke-dasharray: none; stroke-linecap: butt; stroke-linejoin: miter; stroke-miterlimit: 10; fill: rgb(137,201,71); fill-rule: nonzero; opacity: 1;" transform=" matrix(1 0 0 1 0 0) " stroke-linecap="round"/>
	<path d="M 32.073 28.276 c -1.37 0 -2.748 -0.526 -3.985 -1.538 c -1.54 -1.261 -2.684 -3.147 -3.221 -5.309 c -0.55 -2.217 -0.735 -5.874 -0.45 -8.893 c 0.394 -4.169 1.519 -6.512 3.345 -6.965 c 1.823 -0.453 3.916 1.092 6.213 4.593 c 1.663 2.535 3.209 5.855 3.76 8.072 l 0 0 c 0.537 2.162 0.407 4.363 -0.365 6.198 c -0.814 1.936 -2.239 3.244 -4.012 3.684 C 32.933 28.224 32.503 28.276 32.073 28.276 z M 28.391 7.496 c -0.053 0 -0.102 0.006 -0.147 0.017 c -0.684 0.169 -1.517 1.847 -1.835 5.212 c -0.266 2.819 -0.102 6.2 0.4 8.223 c 0.433 1.746 1.337 3.253 2.546 4.243 c 1.125 0.921 2.376 1.273 3.521 0.987 c 1.145 -0.284 2.086 -1.179 2.65 -2.518 c 0.606 -1.44 0.701 -3.195 0.267 -4.942 l 0 0 c -0.501 -2.022 -1.937 -5.089 -3.491 -7.456 C 30.572 8.624 29.131 7.496 28.391 7.496 z" style="stroke: none; stroke-width: 1; stroke-dasharray: none; stroke-linecap: butt; stroke-linejoin: miter; stroke-miterlimit: 10; fill: rgb(0,0,0); fill-rule: nonzero; opacity: 1;" transform=" matrix(1 0 0 1 0 0) " stroke-linecap="round"/>
	<circle cx="43.025000000000006" cy="30.775" r="10.325" style="stroke: none; stroke-width: 1; stroke-dasharray: none; stroke-linecap: butt; stroke-linejoin: miter; stroke-miterlimit: 10; fill: rgb(247,147,30); fill-rule: nonzero; opacity: 1;" transform="  matrix(1 0 0 1 0 0) "/>
	<path d="M 43.025 42.103 c -6.245 0 -11.325 -5.08 -11.325 -11.325 s 5.08 -11.325 11.325 -11.325 s 11.325 5.08 11.325 11.325 S 49.269 42.103 43.025 42.103 z M 43.025 21.453 c -5.142 0 -9.325 4.183 -9.325 9.325 s 4.183 9.325 9.325 9.325 c 5.142 0 9.326 -4.183 9.326 -9.325 S 48.167 21.453 43.025 21.453 z" style="stroke: none; stroke-width: 1; stroke-dasharray: none; stroke-linecap: butt; stroke-linejoin: miter; stroke-miterlimit: 10; fill: rgb(0,0,0); fill-rule: nonzero; opacity: 1;" transform=" matrix(1 0 0 1 0 0) " stroke-linecap="round"/>
	<path d="M 17.252 30.185 c -4.285 0 -7.771 -3.486 -7.771 -7.771 s 3.486 -7.771 7.771 -7.771 s 7.771 3.486 7.771 7.771 S 21.537 30.185 17.252 30.185 z M 17.252 16.642 c -3.182 0 -5.771 2.589 -5.771 5.771 s 2.589 5.771 5.771 5.771 s 5.771 -2.589 5.771 -5.771 S 20.435 16.642 17.252 16.642 z" style="stroke: none; stroke-width: 1; stroke-dasharray: none; stroke-linecap: butt; stroke-linejoin: miter; stroke-miterlimit: 10; fill: rgb(0,0,0); fill-rule: nonzero; opacity: 1;" transform=" matrix(1 0 0 1 0 0) " stroke-linecap="round"/>
	<path d="M 40.216 31.268 c 0 -4.379 -3.55 -7.929 -7.929 -7.929 c -0.26 0 -0.517 0.013 -0.771 0.038 c -1.276 -2.671 -4.001 -4.517 -7.159 -4.517 c -4.139 0 -7.535 3.172 -7.896 7.217 c -3.437 0.869 -5.981 3.981 -5.981 7.687 c 0 4.379 3.55 7.929 7.929 7.929 c 0.833 0 1.636 -0.129 2.39 -0.367 c 1.362 2.403 3.941 4.026 6.901 4.026 c 4.017 0 7.334 -2.987 7.856 -6.861 C 38.304 37.245 40.216 34.48 40.216 31.268 z" style="stroke: none; stroke-width: 1; stroke-dasharray: none; stroke-linecap: butt; stroke-linejoin: miter; stroke-miterlimit: 10; fill: rgb(56,141,15); fill-rule: nonzero; opacity: 1;" transform=" matrix(1 0 0 1 0 0) " stroke-linecap="round"/>
	<path d="M 27.702 46.351 c -2.947 0 -5.699 -1.464 -7.356 -3.869 c -0.634 0.141 -1.282 0.211 -1.935 0.211 c -4.924 0 -8.929 -4.006 -8.929 -8.93 c 0 -3.862 2.464 -7.248 6.071 -8.462 c 0.71 -4.289 4.381 -7.442 8.805 -7.442 c 3.193 0 6.161 1.738 7.742 4.481 c 0.062 -0.001 0.125 -0.002 0.187 -0.002 c 4.924 0 8.929 4.006 8.929 8.929 c 0 3.314 -1.85 6.356 -4.757 7.894 C 35.641 43.297 31.969 46.351 27.702 46.351 z M 20.8 40.326 c 0.353 0 0.688 0.187 0.87 0.507 c 1.23 2.171 3.541 3.519 6.031 3.519 c 3.453 0 6.404 -2.577 6.864 -5.995 c 0.046 -0.342 0.265 -0.635 0.578 -0.777 c 2.474 -1.122 4.072 -3.599 4.072 -6.313 c 0 -3.821 -3.109 -6.929 -6.929 -6.929 c -0.228 0 -0.452 0.012 -0.673 0.033 c -0.42 0.04 -0.819 -0.185 -1 -0.564 c -1.145 -2.398 -3.6 -3.948 -6.256 -3.948 c -3.614 0 -6.58 2.711 -6.9 6.306 c -0.038 0.423 -0.339 0.776 -0.751 0.881 c -3.077 0.778 -5.226 3.54 -5.226 6.718 c 0 3.821 3.108 6.93 6.929 6.93 c 0.711 0 1.414 -0.108 2.089 -0.321 C 20.599 40.341 20.7 40.326 20.8 40.326 z" style="stroke: none; stroke-width: 1; stroke-dasharray: none; stroke-linecap: butt; stroke-linejoin: miter; stroke-miterlimit: 10; fill: rgb(0,0,0); fill-rule: nonzero; opacity: 1;" transform=" matrix(1 0 0 1 0 0) " stroke-linecap="round"/>
	<path d="M 58.04 34.235 H 31.96 H 8.508 c 0.352 14.697 3.267 28.989 9.381 42.778 H 31.96 H 58.04 h 14.072 c 6.114 -13.789 9.03 -28.081 9.381 -42.778 H 58.04 z" style="stroke: none; stroke-width: 1; stroke-dasharray: none; stroke-linecap: butt; stroke-linejoin: miter; stroke-miterlimit: 10; fill: rgb(207,209,213); fill-rule: nonzero; opacity: 1;" transform=" matrix(1 0 0 1 0 0) " stroke-linecap="round"/>
	<path d="M 72.112 78.013 H 17.888 c -0.395 0 -0.754 -0.233 -0.914 -0.595 c -5.916 -13.341 -9.101 -27.862 -9.466 -43.159 c -0.007 -0.27 0.096 -0.53 0.284 -0.723 c 0.188 -0.192 0.446 -0.301 0.715 -0.301 h 72.985 c 0.27 0 0.527 0.109 0.716 0.301 c 0.187 0.193 0.29 0.453 0.284 0.723 c -0.366 15.297 -3.552 29.818 -9.467 43.159 C 72.865 77.779 72.507 78.013 72.112 78.013 z M 18.541 76.013 h 52.918 c 5.51 -12.638 8.539 -26.348 9.005 -40.778 H 9.536 C 10.003 49.665 13.031 63.376 18.541 76.013 z" style="stroke: none; stroke-width: 1; stroke-dasharray: none; stroke-linecap: butt; stroke-linejoin: miter; stroke-miterlimit: 10; fill: rgb(0,0,0); fill-rule: nonzero; opacity: 1;" transform=" matrix(1 0 0 1 0 0) " stroke-linecap="round"/>
	<path d="M 42.702 68.346 c 1.584 9.531 13.337 16.419 26.071 14.302 c 12.734 -2.117 21.626 -12.436 20.042 -21.967 s -13.046 -14.666 -25.78 -12.549 C 50.301 50.248 41.117 58.814 42.702 68.346 z" style="stroke: none; stroke-width: 1; stroke-dasharray: none; stroke-linecap: butt; stroke-linejoin: miter; stroke-miterlimit: 10; fill: rgb(244,67,54); fill-rule: nonzero; opacity: 1;" transform=" matrix(1 0 0 1 0 0) " stroke-linecap="round"/>
	<path d="M 64.139 84.032 c -11.159 0 -20.915 -6.441 -22.424 -15.521 l 0 0 c -0.812 -4.888 0.994 -9.778 5.085 -13.768 c 3.927 -3.83 9.635 -6.528 16.07 -7.597 c 13.709 -2.283 25.284 3.469 26.93 13.371 c 1.723 10.365 -7.833 20.951 -20.864 23.118 C 67.323 83.903 65.716 84.032 64.139 84.032 z M 43.688 68.182 c 1.545 9.294 12.956 15.47 24.921 13.48 c 11.962 -1.989 20.764 -11.522 19.219 -20.817 c -1.459 -8.778 -12.05 -13.817 -24.629 -11.727 c -6.037 1.003 -11.365 3.51 -15.002 7.056 C 44.588 59.693 42.986 63.959 43.688 68.182 L 43.688 68.182 z" style="stroke: none; stroke-width: 1; stroke-dasharray: none; stroke-linecap: butt; stroke-linejoin: miter; stroke-miterlimit: 10; fill: rgb(0,0,0); fill-rule: nonzero; opacity: 1;" transform=" matrix(1 0 0 1 0 0) " stroke-linecap="round"/>
	<path d="M 63.191 47.636 c 3.326 -2.474 5.372 -3.754 9.552 -4.595 c 0.086 2.655 -0.513 4.708 -1.814 6.145 c 2.056 0.494 3.882 1.789 5.629 3.361 c -2.611 0.88 -5.123 1.465 -7.359 1.223 c -1.246 1.984 -1.692 4.263 -1.815 6.661 c -2.343 -1.379 -4.439 -3.151 -6.227 -5.41 c -2.25 1.941 -5.199 2.913 -8.781 3.006 c 1.186 -2.772 2.932 -4.798 5.27 -6.032 c -3.134 -0.118 -4.095 -1.615 -6.036 -4.239 C 55.791 46.886 59.694 46.736 63.191 47.636" style="stroke: none; stroke-width: 1; stroke-dasharray: none; stroke-linecap: butt; stroke-linejoin: miter; stroke-miterlimit: 10; fill: rgb(54,140,14); fill-rule: nonzero; opacity: 1;" transform=" matrix(1 0 0 1 0 0) " stroke-linecap="round"/>
	<path d="M 67.383 61.431 c -0.176 0 -0.351 -0.046 -0.507 -0.139 c -2.231 -1.312 -4.202 -2.952 -5.868 -4.881 c -2.274 1.646 -5.164 2.525 -8.607 2.616 c -0.332 0.009 -0.661 -0.156 -0.853 -0.438 c -0.191 -0.281 -0.227 -0.642 -0.093 -0.955 c 0.905 -2.116 2.129 -3.831 3.652 -5.123 c -1.751 -0.698 -2.773 -2.087 -4.051 -3.819 l -0.251 -0.341 c -0.203 -0.274 -0.252 -0.633 -0.131 -0.951 c 0.122 -0.318 0.397 -0.553 0.73 -0.623 c 4.43 -0.922 8.218 -0.995 11.567 -0.224 c 2.983 -2.202 5.234 -3.62 9.573 -4.493 c 0.29 -0.056 0.588 0.014 0.818 0.196 c 0.23 0.183 0.369 0.457 0.378 0.751 c 0.074 2.264 -0.328 4.157 -1.197 5.651 c 1.482 0.601 2.975 1.609 4.681 3.145 c 0.265 0.238 0.383 0.598 0.311 0.946 c -0.072 0.348 -0.323 0.631 -0.66 0.744 c -2.946 0.993 -5.173 1.41 -7.13 1.32 c -0.807 1.497 -1.243 3.317 -1.363 5.667 c -0.019 0.35 -0.217 0.664 -0.525 0.83 C 67.71 61.391 67.546 61.431 67.383 61.431 z M 61.156 54.021 c 0.031 0 0.062 0.002 0.095 0.005 c 0.271 0.025 0.52 0.161 0.689 0.374 c 1.309 1.653 2.848 3.095 4.591 4.301 c 0.274 -2.179 0.865 -3.942 1.82 -5.463 c 0.202 -0.323 0.565 -0.508 0.954 -0.462 c 1.436 0.155 3.082 -0.043 5.205 -0.64 c -1.376 -1.059 -2.591 -1.684 -3.815 -1.977 c -0.343 -0.083 -0.618 -0.34 -0.722 -0.678 c -0.104 -0.337 -0.023 -0.704 0.214 -0.966 c 0.913 -1.009 1.43 -2.426 1.541 -4.223 c -3.192 0.795 -4.993 1.955 -7.94 4.147 c -0.241 0.179 -0.554 0.239 -0.846 0.166 c -2.775 -0.716 -5.919 -0.769 -9.576 -0.161 c 1.284 1.683 2.17 2.472 4.317 2.553 c 0.452 0.017 0.837 0.336 0.936 0.777 c 0.101 0.441 -0.107 0.895 -0.508 1.106 c -1.661 0.875 -3.022 2.226 -4.063 4.026 c 2.615 -0.313 4.781 -1.199 6.454 -2.642 C 60.686 54.107 60.917 54.021 61.156 54.021 z" style="stroke: none; stroke-width: 1; stroke-dasharray: none; stroke-linecap: butt; stroke-linejoin: miter; stroke-miterlimit: 10; fill: rgb(0,0,0); fill-rule: nonzero; opacity: 1;" transform=" matrix(1 0 0 1 0 0) " stroke-linecap="round"/>
	<path d="M 63.433 51.532 c -0.452 0 -0.862 -0.309 -0.972 -0.768 c -0.914 -3.831 -2.717 -7.075 -5.511 -9.92 c -0.387 -0.394 -0.381 -1.027 0.013 -1.414 c 0.395 -0.388 1.026 -0.382 1.415 0.013 c 3.056 3.112 5.028 6.663 6.029 10.857 c 0.128 0.537 -0.203 1.077 -0.74 1.205 C 63.589 51.523 63.511 51.532 63.433 51.532 z" style="stroke: none; stroke-width: 1; stroke-dasharray: none; stroke-linecap: butt; stroke-linejoin: miter; stroke-miterlimit: 10; fill: rgb(0,0,0); fill-rule: nonzero; opacity: 1;" transform=" matrix(1 0 0 1 0 0) " stroke-linecap="round"/>
	<path d="M 74.938 71.531 c -0.352 0 -0.692 -0.186 -0.876 -0.515 c -0.268 -0.483 -0.093 -1.092 0.39 -1.36 c 3.576 -1.982 5.797 -5.219 5.797 -8.448 c 0 -0.553 0.447 -1 1 -1 c 0.553 0 1 0.447 1 1 c 0 4.014 -2.552 7.827 -6.826 10.198 C 75.268 71.491 75.102 71.531 74.938 71.531 z" style="stroke: none; stroke-width: 1; stroke-dasharray: none; stroke-linecap: butt; stroke-linejoin: miter; stroke-miterlimit: 10; fill: rgb(0,0,0); fill-rule: nonzero; opacity: 1;" transform=" matrix(1 0 0 1 0 0) " stroke-linecap="round"/>
	<path d="M 21.018 66.123 l -0.802 1.857 c -0.76 1.76 -1.037 3.263 -0.974 4.776 l 0.1 2.419 c 0.207 4.998 4.045 9.093 9.021 9.602 c 14.249 1.459 38.15 2.032 54.254 -0.175 c 2.375 -0.325 2.958 -3.472 0.857 -4.627 c -14.247 -7.827 -36.768 -15.85 -50.594 -19.59 C 28.052 59.08 23.002 61.531 21.018 66.123 z" style="stroke: none; stroke-width: 1; stroke-dasharray: none; stroke-linecap: butt; stroke-linejoin: miter; stroke-miterlimit: 10; fill: rgb(247,147,30); fill-rule: nonzero; opacity: 1;" transform=" matrix(1 0 0 1 0 0) " stroke-linecap="round"/>
	<path d="M 19.343 75.175 l -0.1 -2.419 c -0.063 -1.513 0.214 -3.016 0.974 -4.776 l 0.802 -1.857 c 0.47 -1.089 1.118 -2.053 1.889 -2.88 c -0.621 -1.596 -1.611 -3.299 -2.936 -4.92 c -3.617 -4.428 -8.326 -6.565 -10.518 -4.774 c -2.029 1.657 -1.187 6.097 1.816 10.259 c -5.248 -0.742 -9.735 0.661 -10.224 3.297 s 3.2 5.552 8.365 6.739 c -4.294 2.811 -6.67 6.655 -5.369 8.929 c 1.406 2.457 6.568 2.148 11.531 -0.691 c 1.817 -1.039 3.351 -2.274 4.502 -3.542 C 19.651 77.491 19.392 76.36 19.343 75.175 z" style="stroke: none; stroke-width: 1; stroke-dasharray: none; stroke-linecap: butt; stroke-linejoin: miter; stroke-miterlimit: 10; fill: rgb(54,140,14); fill-rule: nonzero; opacity: 1;" transform=" matrix(1 0 0 1 0 0) " stroke-linecap="round"/>
	<path d="M 56.267 87.076 c -10.098 0 -20.181 -0.503 -28.006 -1.304 c -5.427 -0.557 -9.691 -5.094 -9.918 -10.557 l -0.1 -2.419 c -0.072 -1.724 0.263 -3.382 1.055 -5.214 l 0.802 -1.857 l 0 0 c 2.169 -5.02 7.777 -7.731 13.041 -6.305 c 14.68 3.97 36.848 12.005 50.814 19.679 c 1.342 0.736 2.03 2.182 1.752 3.682 c -0.277 1.5 -1.437 2.603 -2.954 2.811 C 75.131 86.638 65.692 87.076 56.267 87.076 z M 21.937 66.519 l -0.802 1.857 c -0.668 1.547 -0.952 2.925 -0.893 4.338 l 0.1 2.42 c 0.186 4.475 3.678 8.194 8.124 8.649 c 15.01 1.538 38.386 1.973 54.017 -0.171 c 0.785 -0.107 1.166 -0.686 1.26 -1.193 s -0.054 -1.184 -0.749 -1.565 c -13.829 -7.599 -35.808 -15.562 -50.374 -19.503 C 28.305 60.185 23.713 62.406 21.937 66.519 z" style="stroke: none; stroke-width: 1; stroke-dasharray: none; stroke-linecap: butt; stroke-linejoin: miter; stroke-miterlimit: 10; fill: rgb(0,0,0); fill-rule: nonzero; opacity: 1;" transform=" matrix(1 0 0 1 0 0) " stroke-linecap="round"/>
	<path d="M 7.891 85.431 c -2.252 0 -3.913 -0.757 -4.717 -2.163 c -1.38 -2.411 0.281 -6.018 3.984 -9.019 c -4.713 -1.579 -7.62 -4.49 -7.095 -7.327 c 0.525 -2.836 4.282 -4.497 9.248 -4.3 c -2.382 -4.128 -2.641 -8.09 -0.49 -9.849 c 1.37 -1.119 3.419 -1.149 5.771 -0.081 c 2.124 0.965 4.31 2.739 6.154 4.998 c 1.341 1.641 2.411 3.436 3.093 5.19 c 0.139 0.357 0.061 0.764 -0.201 1.044 c -0.719 0.771 -1.292 1.644 -1.703 2.595 l -0.802 1.857 c -0.668 1.547 -0.952 2.925 -0.893 4.338 l 0.1 2.42 c 0.043 1.034 0.265 2.054 0.661 3.03 c 0.144 0.356 0.071 0.763 -0.187 1.047 c -1.265 1.393 -2.906 2.686 -4.746 3.738 c -2.531 1.448 -5.207 2.323 -7.536 2.463 C 8.315 85.424 8.1 85.431 7.891 85.431 z M 8.545 64.611 c -3.688 0 -6.246 1.22 -6.516 2.676 c -0.329 1.777 2.648 4.444 7.605 5.583 c 0.391 0.09 0.69 0.404 0.761 0.799 c 0.07 0.395 -0.102 0.793 -0.436 1.013 c -4.222 2.763 -5.908 6.093 -5.049 7.594 c 0.475 0.83 1.745 1.247 3.504 1.14 c 2.027 -0.121 4.393 -0.903 6.662 -2.202 c 1.464 -0.837 2.782 -1.836 3.844 -2.91 c -0.34 -1.002 -0.534 -2.037 -0.577 -3.086 c 0 -0.001 0 -0.001 0 -0.001 l -0.1 -2.419 c -0.072 -1.724 0.263 -3.382 1.055 -5.214 l 0.802 -1.857 c 0.416 -0.964 0.968 -1.862 1.645 -2.677 c -0.607 -1.384 -1.48 -2.788 -2.548 -4.093 c -1.654 -2.025 -3.583 -3.602 -5.432 -4.442 c -1.599 -0.726 -2.939 -0.796 -3.679 -0.191 c -1.339 1.095 -0.957 4.808 1.994 8.901 c 0.234 0.325 0.252 0.759 0.045 1.101 c -0.207 0.344 -0.599 0.533 -0.996 0.474 C 10.222 64.67 9.356 64.611 8.545 64.611 z" style="stroke: none; stroke-width: 1; stroke-dasharray: none; stroke-linecap: butt; stroke-linejoin: miter; stroke-miterlimit: 10; fill: rgb(0,0,0); fill-rule: nonzero; opacity: 1;" transform=" matrix(1 0 0 1 0 0) " stroke-linecap="round"/>
	<path d="M 32.095 74.774 c -0.06 0 -0.122 -0.005 -0.183 -0.017 c -0.543 -0.101 -0.902 -0.622 -0.801 -1.165 c 0.976 -5.273 2.903 -9.367 5.888 -12.514 c 0.38 -0.399 1.012 -0.417 1.414 -0.037 c 0.4 0.38 0.417 1.014 0.037 1.414 c -2.712 2.857 -4.469 6.62 -5.373 11.5 C 32.988 74.438 32.568 74.774 32.095 74.774 z" style="stroke: none; stroke-width: 1; stroke-dasharray: none; stroke-linecap: butt; stroke-linejoin: miter; stroke-miterlimit: 10; fill: rgb(0,0,0); fill-rule: nonzero; opacity: 1;" transform=" matrix(1 0 0 1 0 0) " stroke-linecap="round"/>
	<path d="M 49.456 86.992 c -0.485 0 -0.911 -0.353 -0.987 -0.848 c -0.539 -3.495 -0.727 -6.433 0.104 -9.41 c 0.148 -0.533 0.703 -0.843 1.231 -0.694 c 0.532 0.148 0.843 0.699 0.694 1.231 c -0.733 2.632 -0.552 5.329 -0.053 8.568 c 0.084 0.546 -0.29 1.057 -0.836 1.141 C 49.557 86.989 49.507 86.992 49.456 86.992 z" style="stroke: none; stroke-width: 1; stroke-dasharray: none; stroke-linecap: butt; stroke-linejoin: miter; stroke-miterlimit: 10; fill: rgb(0,0,0); fill-rule: nonzero; opacity: 1;" transform=" matrix(1 0 0 1 0 0) " stroke-linecap="round"/>
	<path d="M 65.479 80.036 c -0.088 0 -0.177 -0.012 -0.266 -0.035 c -0.532 -0.146 -0.846 -0.696 -0.7 -1.229 c 0.618 -2.252 1.84 -4.416 3.633 -6.429 c 0.369 -0.413 1.001 -0.449 1.412 -0.082 c 0.412 0.367 0.449 1 0.082 1.412 c -1.587 1.782 -2.662 3.676 -3.197 5.629 C 66.321 79.744 65.918 80.036 65.479 80.036 z" style="stroke: none; stroke-width: 1; stroke-dasharray: none; stroke-linecap: butt; stroke-linejoin: miter; stroke-miterlimit: 10; fill: rgb(0,0,0); fill-rule: nonzero; opacity: 1;" transform=" matrix(1 0 0 1 0 0) " stroke-linecap="round"/>
</g>
</svg>